<svg xmlns="http://www.w3.org/2000/svg" viewBox="0 0 640 360" role="img" aria-label="Juegos de cartas">
  <defs>
    <linearGradient id="bg" x1="0" y1="0" x2="1" y2="1">
      <stop offset="0%" stop-color="#d8f3dc"/>
      <stop offset="100%" stop-color="#b7e4c7"/>
    </linearGradient>
    <linearGradient id="card1" x1="0" y1="0" x2="1" y2="1">
      <stop offset="0%" stop-color="#ffffff"/>
      <stop offset="100%" stop-color="#f5f5f5"/>
    </linearGradient>
    <linearGradient id="card2" x1="0" y1="0" x2="1" y2="1">
      <stop offset="0%" stop-color="#ffffff"/>
      <stop offset="100%" stop-color="#f0faf2"/>
    </linearGradient>
    <linearGradient id="heart" x1="0" y1="0" x2="0" y2="1">
      <stop offset="0%" stop-color="#f4a261"/>
      <stop offset="100%" stop-color="#e76f51"/>
    </linearGradient>
    <linearGradient id="diamond" x1="0" y1="0" x2="0" y2="1">
      <stop offset="0%" stop-color="#52b788"/>
      <stop offset="100%" stop-color="#2d6a4f"/>
    </linearGradient>
    <filter id="shadow" x="-10%" y="-10%" width="120%" height="130%">
      <feDropShadow dx="0" dy="6" stdDeviation="10" flood-opacity="0.18"/>
    </filter>
    <filter id="cardShadow" x="-10%" y="-10%" width="120%" height="130%">
      <feDropShadow dx="2" dy="4" stdDeviation="6" flood-opacity="0.12"/>
    </filter>
  </defs>
  <rect width="640" height="360" fill="url(#bg)"/>
  <circle cx="100" cy="300" r="50" fill="#e76f51" opacity="0.05"/>
  <circle cx="540" cy="80" r="45" fill="#2d6a4f" opacity="0.06"/>
  <rect x="192" y="70" width="130" height="190" rx="16" fill="url(#card1)" filter="url(#cardShadow)" transform="rotate(-12 257 165)"/>
  <rect x="318" y="65" width="130" height="190" rx="16" fill="url(#card2)" filter="url(#cardShadow)" transform="rotate(8 383 160)"/>
  <rect x="186" y="66" width="130" height="190" rx="16" fill="none" stroke="#2d6a4f" stroke-width="2" opacity="0.15" transform="rotate(-12 251 161)"/>
  <rect x="324" y="60" width="130" height="190" rx="16" fill="none" stroke="#e76f51" stroke-width="2" opacity="0.15" transform="rotate(8 389 155)"/>
  <circle cx="251" cy="175" r="28" fill="url(#heart)" opacity="0.9"/>
  <circle cx="251" cy="170" r="12" fill="white" opacity="0.25"/>
  <path d="M389 130l-24 44h48z" fill="url(#diamond)"/>
  <path d="M389 135l-18 34h36z" fill="white" opacity="0.2"/>
  <circle cx="180" cy="55" r="4" fill="#e9c46a" opacity="0.4"/>
  <circle cx="470" cy="270" r="6" fill="#e76f51" opacity="0.15"/>
  <circle cx="500" cy="140" r="3" fill="#52b788" opacity="0.3"/>
  <text x="320" y="330" text-anchor="middle" font-family="'Inter',Arial,sans-serif" font-size="22" font-weight="800" fill="#1b4332" letter-spacing="0.05em" opacity="0.7">CARTAS</text>
</svg>